<svg xmlns="http://www.w3.org/2000/svg" version="1.1" xmlns:xlink="http://www.w3.org/1999/xlink" xmlns:svgjs="http://svgjs.dev/svgjs" width="1000" height="623" viewBox="0 0 1000 623"><g transform="matrix(1,0,0,1,-0.6060606060606233,0.2522267206477409)"><svg viewBox="0 0 396 247" data-background-color="#ffffff" preserveAspectRatio="xMidYMid meet" height="623" width="1000" xmlns="http://www.w3.org/2000/svg" xmlns:xlink="http://www.w3.org/1999/xlink"><g id="tight-bounds" transform="matrix(1,0,0,1,0.2400000000000091,-0.09999999999999432)"><svg viewBox="0 0 395.52 247.2" height="247.2" width="395.52"><g><svg></svg></g><g><svg viewBox="0 0 395.52 247.2" height="247.2" width="395.52"><g transform="matrix(1,0,0,1,119.04355164835164,47.215199999999996)"><svg viewBox="0 0 157.4328967032967 152.7696" height="152.7696" width="157.4328967032967"><g><svg viewBox="0 0 157.4328967032967 152.7696" height="152.7696" width="157.4328967032967"><g><svg viewBox="0 0 157.4328967032967 152.7696" height="152.7696" width="157.4328967032967"><g><svg viewBox="0 0 157.4328967032967 152.7696" height="152.7696" width="157.4328967032967"><g id="textblocktransform"><svg viewBox="0 0 157.4328967032967 152.7696" height="152.7696" width="157.4328967032967" id="textblock"><g><svg viewBox="0 0 157.4328967032967 152.7696" height="152.7696" width="157.4328967032967"><g transform="matrix(1,0,0,1,0,0)"><svg width="157.4328967032967" viewBox="3.76 -37.74 41.21 39.99" height="152.7696" data-palette-color="#914dd8"><path d="M44.97-1.37L44.97 0.83Q44.04 0.78 43.16 0.68L43.16 0.68Q42.43 0.59 41.72 0.54 41.02 0.49 40.67 0.49L40.67 0.49Q38.77 0.49 36.87 0.56 34.96 0.63 33.11 0.83L33.11 0.83Q33.15-1.22 33.18-3.2 33.2-5.18 33.2-7.23L33.2-7.23Q33.2-10.89 33.08-14.5 32.96-18.12 32.86-21.73L32.86-21.73 22.61 1.46Q20.36-4.64 17.8-10.52 15.23-16.41 12.45-22.27L12.45-22.27 13.23 1.86Q12.7 1.86 12.13 1.83 11.57 1.81 10.99 1.81L10.99 1.81Q9.13 1.81 7.35 1.95 5.57 2.1 3.76 2.25L3.76 2.25Q4-2.29 4.25-6.79 4.49-11.28 4.49-15.82L4.49-15.82Q4.49-21.14 4.42-26.42 4.35-31.69 4.3-37.01L4.3-37.01Q7.81-37.01 11.16-37.21 14.5-37.4 18.02-37.74L18.02-37.74Q19.19-33.84 20.43-30 21.68-26.17 23.1-22.36L23.1-22.36Q24.61-25.98 26.54-29.44 28.47-32.91 30.47-36.33L30.47-36.33Q33.79-36.43 37.04-36.52 40.28-36.62 43.6-36.67L43.6-36.67Q43.75-32.28 43.97-27.98 44.19-23.68 44.38-19.29L44.38-19.29Q44.53-15.82 44.65-12.35 44.78-8.89 44.87-5.47L44.87-5.47 44.97-1.37Z" opacity="1" transform="matrix(1,0,0,1,0,0)" fill="#914dd8" class="undefined-text-0" data-fill-palette-color="primary" id="text-0"></path></svg></g></svg></g></svg></g></svg></g></svg></g></svg></g></svg></g><path d="M301.345 41.215L301.345 0 54.145 0 54.145 247.2 301.345 247.2 301.345 205.985 287.568 205.985 287.568 233.423 67.922 233.423 67.922 13.777 287.568 13.777 287.568 41.215Z" fill="#914dd8" stroke="transparent" data-fill-palette-color="primary"></path></svg></g><defs></defs></svg><rect width="395.52" height="247.2" fill="none" stroke="none" visibility="hidden"></rect></g></svg></g></svg>